<mxfile host="app.diagrams.net" modified="2023-05-24T22:24:21.091Z" agent="Mozilla/5.0 (Windows NT 10.0; Win64; x64) AppleWebKit/537.36 (KHTML, like Gecko) Chrome/113.0.0.0 Safari/537.36" etag="UphSvdyE1JQN472--6L6" version="21.3.3" type="device">
  <diagram name="Σελίδα-1" id="KsDhF08YEf31qekTnBba">
    <mxGraphModel dx="2006" dy="2427" grid="1" gridSize="10" guides="1" tooltips="1" connect="1" arrows="1" fold="1" page="1" pageScale="1" pageWidth="1169" pageHeight="1654" math="0" shadow="0">
      <root>
        <mxCell id="0" />
        <mxCell id="1" parent="0" />
        <mxCell id="QZIYZ3LYBsorocGyn5Lz-48" value="" style="html=1;points=[];perimeter=orthogonalPerimeter;outlineConnect=0;targetShapes=umlLifeline;portConstraint=eastwest;newEdgeStyle={&quot;edgeStyle&quot;:&quot;elbowEdgeStyle&quot;,&quot;elbow&quot;:&quot;vertical&quot;,&quot;curved&quot;:0,&quot;rounded&quot;:0};" vertex="1" parent="1">
          <mxGeometry x="375" y="50" width="10" height="200" as="geometry" />
        </mxCell>
        <mxCell id="QZIYZ3LYBsorocGyn5Lz-1" value="" style="shape=umlLifeline;perimeter=lifelinePerimeter;whiteSpace=wrap;html=1;container=1;dropTarget=0;collapsible=0;recursiveResize=0;outlineConnect=0;portConstraint=eastwest;newEdgeStyle={&quot;edgeStyle&quot;:&quot;elbowEdgeStyle&quot;,&quot;elbow&quot;:&quot;vertical&quot;,&quot;curved&quot;:0,&quot;rounded&quot;:0};participant=umlActor;" vertex="1" parent="1">
          <mxGeometry x="70" y="-170" width="20" height="700" as="geometry" />
        </mxCell>
        <mxCell id="QZIYZ3LYBsorocGyn5Lz-44" value="" style="html=1;points=[];perimeter=orthogonalPerimeter;outlineConnect=0;targetShapes=umlLifeline;portConstraint=eastwest;newEdgeStyle={&quot;edgeStyle&quot;:&quot;elbowEdgeStyle&quot;,&quot;elbow&quot;:&quot;vertical&quot;,&quot;curved&quot;:0,&quot;rounded&quot;:0};" vertex="1" parent="QZIYZ3LYBsorocGyn5Lz-1">
          <mxGeometry x="10" y="120" width="10" height="410" as="geometry" />
        </mxCell>
        <mxCell id="QZIYZ3LYBsorocGyn5Lz-2" value="" style="shape=umlLifeline;perimeter=lifelinePerimeter;whiteSpace=wrap;html=1;container=1;dropTarget=0;collapsible=0;recursiveResize=0;outlineConnect=0;portConstraint=eastwest;newEdgeStyle={&quot;edgeStyle&quot;:&quot;elbowEdgeStyle&quot;,&quot;elbow&quot;:&quot;vertical&quot;,&quot;curved&quot;:0,&quot;rounded&quot;:0};participant=umlBoundary;" vertex="1" parent="1">
          <mxGeometry x="170" y="-170" width="50" height="690" as="geometry" />
        </mxCell>
        <mxCell id="QZIYZ3LYBsorocGyn5Lz-46" value="" style="html=1;points=[];perimeter=orthogonalPerimeter;outlineConnect=0;targetShapes=umlLifeline;portConstraint=eastwest;newEdgeStyle={&quot;edgeStyle&quot;:&quot;elbowEdgeStyle&quot;,&quot;elbow&quot;:&quot;vertical&quot;,&quot;curved&quot;:0,&quot;rounded&quot;:0};" vertex="1" parent="QZIYZ3LYBsorocGyn5Lz-2">
          <mxGeometry x="20" y="80" width="10" height="250" as="geometry" />
        </mxCell>
        <mxCell id="QZIYZ3LYBsorocGyn5Lz-3" value="" style="shape=umlLifeline;perimeter=lifelinePerimeter;whiteSpace=wrap;html=1;container=1;dropTarget=0;collapsible=0;recursiveResize=0;outlineConnect=0;portConstraint=eastwest;newEdgeStyle={&quot;edgeStyle&quot;:&quot;elbowEdgeStyle&quot;,&quot;elbow&quot;:&quot;vertical&quot;,&quot;curved&quot;:0,&quot;rounded&quot;:0};participant=umlBoundary;" vertex="1" parent="1">
          <mxGeometry x="470" y="-170" width="50" height="710" as="geometry" />
        </mxCell>
        <mxCell id="QZIYZ3LYBsorocGyn5Lz-4" value="" style="shape=umlLifeline;perimeter=lifelinePerimeter;whiteSpace=wrap;html=1;container=1;dropTarget=0;collapsible=0;recursiveResize=0;outlineConnect=0;portConstraint=eastwest;newEdgeStyle={&quot;edgeStyle&quot;:&quot;elbowEdgeStyle&quot;,&quot;elbow&quot;:&quot;vertical&quot;,&quot;curved&quot;:0,&quot;rounded&quot;:0};participant=umlBoundary;" vertex="1" parent="1">
          <mxGeometry x="760" y="-170" width="50" height="680" as="geometry" />
        </mxCell>
        <mxCell id="QZIYZ3LYBsorocGyn5Lz-53" value="" style="html=1;points=[];perimeter=orthogonalPerimeter;outlineConnect=0;targetShapes=umlLifeline;portConstraint=eastwest;newEdgeStyle={&quot;edgeStyle&quot;:&quot;elbowEdgeStyle&quot;,&quot;elbow&quot;:&quot;vertical&quot;,&quot;curved&quot;:0,&quot;rounded&quot;:0};" vertex="1" parent="QZIYZ3LYBsorocGyn5Lz-4">
          <mxGeometry x="20" y="480" width="10" height="140" as="geometry" />
        </mxCell>
        <mxCell id="QZIYZ3LYBsorocGyn5Lz-5" value="" style="shape=umlLifeline;perimeter=lifelinePerimeter;whiteSpace=wrap;html=1;container=1;dropTarget=0;collapsible=0;recursiveResize=0;outlineConnect=0;portConstraint=eastwest;newEdgeStyle={&quot;edgeStyle&quot;:&quot;elbowEdgeStyle&quot;,&quot;elbow&quot;:&quot;vertical&quot;,&quot;curved&quot;:0,&quot;rounded&quot;:0};participant=umlBoundary;" vertex="1" parent="1">
          <mxGeometry x="1050" y="-170" width="50" height="690" as="geometry" />
        </mxCell>
        <mxCell id="QZIYZ3LYBsorocGyn5Lz-6" value="" style="shape=umlLifeline;perimeter=lifelinePerimeter;whiteSpace=wrap;html=1;container=1;dropTarget=0;collapsible=0;recursiveResize=0;outlineConnect=0;portConstraint=eastwest;newEdgeStyle={&quot;edgeStyle&quot;:&quot;elbowEdgeStyle&quot;,&quot;elbow&quot;:&quot;vertical&quot;,&quot;curved&quot;:0,&quot;rounded&quot;:0};participant=umlBoundary;" vertex="1" parent="1">
          <mxGeometry x="630" y="-170" width="50" height="680" as="geometry" />
        </mxCell>
        <mxCell id="QZIYZ3LYBsorocGyn5Lz-7" value="" style="shape=umlLifeline;perimeter=lifelinePerimeter;whiteSpace=wrap;html=1;container=1;dropTarget=0;collapsible=0;recursiveResize=0;outlineConnect=0;portConstraint=eastwest;newEdgeStyle={&quot;edgeStyle&quot;:&quot;elbowEdgeStyle&quot;,&quot;elbow&quot;:&quot;vertical&quot;,&quot;curved&quot;:0,&quot;rounded&quot;:0};participant=umlEntity;" vertex="1" parent="1">
          <mxGeometry x="260" y="-170" width="40" height="780" as="geometry" />
        </mxCell>
        <mxCell id="QZIYZ3LYBsorocGyn5Lz-47" value="" style="html=1;points=[];perimeter=orthogonalPerimeter;outlineConnect=0;targetShapes=umlLifeline;portConstraint=eastwest;newEdgeStyle={&quot;edgeStyle&quot;:&quot;elbowEdgeStyle&quot;,&quot;elbow&quot;:&quot;vertical&quot;,&quot;curved&quot;:0,&quot;rounded&quot;:0};" vertex="1" parent="QZIYZ3LYBsorocGyn5Lz-7">
          <mxGeometry x="15" y="140" width="10" height="40" as="geometry" />
        </mxCell>
        <mxCell id="QZIYZ3LYBsorocGyn5Lz-8" value="" style="shape=umlLifeline;perimeter=lifelinePerimeter;whiteSpace=wrap;html=1;container=1;dropTarget=0;collapsible=0;recursiveResize=0;outlineConnect=0;portConstraint=eastwest;newEdgeStyle={&quot;edgeStyle&quot;:&quot;elbowEdgeStyle&quot;,&quot;elbow&quot;:&quot;vertical&quot;,&quot;curved&quot;:0,&quot;rounded&quot;:0};participant=umlEntity;" vertex="1" parent="1">
          <mxGeometry x="360" y="-170" width="40" height="710" as="geometry" />
        </mxCell>
        <mxCell id="QZIYZ3LYBsorocGyn5Lz-9" value="" style="shape=umlLifeline;perimeter=lifelinePerimeter;whiteSpace=wrap;html=1;container=1;dropTarget=0;collapsible=0;recursiveResize=0;outlineConnect=0;portConstraint=eastwest;newEdgeStyle={&quot;edgeStyle&quot;:&quot;elbowEdgeStyle&quot;,&quot;elbow&quot;:&quot;vertical&quot;,&quot;curved&quot;:0,&quot;rounded&quot;:0};participant=umlEntity;" vertex="1" parent="1">
          <mxGeometry x="900" y="-170" width="40" height="680" as="geometry" />
        </mxCell>
        <mxCell id="QZIYZ3LYBsorocGyn5Lz-10" value="σελ&lt;br&gt;καταχωρηση&lt;br&gt;αθλητικης&lt;br&gt;δραστηριοτητας" style="text;html=1;align=center;verticalAlign=middle;resizable=0;points=[];autosize=1;strokeColor=none;fillColor=none;" vertex="1" parent="1">
          <mxGeometry x="135" y="-252" width="110" height="70" as="geometry" />
        </mxCell>
        <mxCell id="QZIYZ3LYBsorocGyn5Lz-11" value="λιστα&amp;nbsp;&lt;br&gt;&quot;δραστηριοτητες{&quot;" style="text;html=1;align=center;verticalAlign=middle;resizable=0;points=[];autosize=1;strokeColor=none;fillColor=none;" vertex="1" parent="1">
          <mxGeometry x="320" y="-220" width="120" height="40" as="geometry" />
        </mxCell>
        <mxCell id="QZIYZ3LYBsorocGyn5Lz-12" value="Calories&amp;nbsp;&lt;br&gt;Burnt&lt;br&gt;API" style="text;html=1;align=center;verticalAlign=middle;resizable=0;points=[];autosize=1;strokeColor=none;fillColor=none;" vertex="1" parent="1">
          <mxGeometry x="245" y="-230" width="70" height="60" as="geometry" />
        </mxCell>
        <mxCell id="QZIYZ3LYBsorocGyn5Lz-13" value="σελ&lt;br&gt;αθλητικες&lt;br&gt;δραστηριοτητες" style="text;html=1;align=center;verticalAlign=middle;resizable=0;points=[];autosize=1;strokeColor=none;fillColor=none;" vertex="1" parent="1">
          <mxGeometry x="445" y="-237" width="110" height="60" as="geometry" />
        </mxCell>
        <mxCell id="QZIYZ3LYBsorocGyn5Lz-14" value="σελ&lt;br&gt;χρονος&lt;br&gt;ενασχολησης" style="text;html=1;align=center;verticalAlign=middle;resizable=0;points=[];autosize=1;strokeColor=none;fillColor=none;" vertex="1" parent="1">
          <mxGeometry x="740" y="-237" width="90" height="60" as="geometry" />
        </mxCell>
        <mxCell id="QZIYZ3LYBsorocGyn5Lz-16" value="σελ&lt;br&gt;δημιουργια&lt;br&gt;δραστηριοτητας" style="text;html=1;align=center;verticalAlign=middle;resizable=0;points=[];autosize=1;strokeColor=none;fillColor=none;" vertex="1" parent="1">
          <mxGeometry x="600" y="-237" width="110" height="60" as="geometry" />
        </mxCell>
        <mxCell id="QZIYZ3LYBsorocGyn5Lz-17" value="ημερησια&amp;nbsp;&lt;br&gt;λιστα&amp;nbsp;&lt;br&gt;καταναλωσης" style="text;html=1;align=center;verticalAlign=middle;resizable=0;points=[];autosize=1;strokeColor=none;fillColor=none;" vertex="1" parent="1">
          <mxGeometry x="870" y="-237" width="100" height="60" as="geometry" />
        </mxCell>
        <mxCell id="QZIYZ3LYBsorocGyn5Lz-18" value="σελ&lt;br&gt;θερμιδες&lt;br&gt;που καηκαν&lt;br&gt;" style="text;html=1;align=center;verticalAlign=middle;resizable=0;points=[];autosize=1;strokeColor=none;fillColor=none;" vertex="1" parent="1">
          <mxGeometry x="1015" y="-247" width="90" height="60" as="geometry" />
        </mxCell>
        <mxCell id="QZIYZ3LYBsorocGyn5Lz-19" value="showInputPage()" style="endArrow=classic;html=1;rounded=0;" edge="1" parent="1" source="QZIYZ3LYBsorocGyn5Lz-2" target="QZIYZ3LYBsorocGyn5Lz-2">
          <mxGeometry x="-0.2817" y="14" width="50" height="50" relative="1" as="geometry">
            <mxPoint x="400" y="100" as="sourcePoint" />
            <mxPoint x="450" y="50" as="targetPoint" />
            <Array as="points">
              <mxPoint x="220" y="-90" />
              <mxPoint x="220" y="-70" />
            </Array>
            <mxPoint x="11" y="4" as="offset" />
          </mxGeometry>
        </mxCell>
        <mxCell id="QZIYZ3LYBsorocGyn5Lz-21" value="inputActivity()" style="endArrow=classic;html=1;rounded=0;" edge="1" parent="1" source="QZIYZ3LYBsorocGyn5Lz-1" target="QZIYZ3LYBsorocGyn5Lz-2">
          <mxGeometry x="-0.1217" y="10" width="50" height="50" relative="1" as="geometry">
            <mxPoint x="390" y="-20" as="sourcePoint" />
            <mxPoint x="440" y="-70" as="targetPoint" />
            <Array as="points">
              <mxPoint x="160" y="-50" />
            </Array>
            <mxPoint as="offset" />
          </mxGeometry>
        </mxCell>
        <mxCell id="QZIYZ3LYBsorocGyn5Lz-22" value="fetchCalData()" style="endArrow=classic;html=1;rounded=0;" edge="1" parent="1" source="QZIYZ3LYBsorocGyn5Lz-2" target="QZIYZ3LYBsorocGyn5Lz-7">
          <mxGeometry x="-0.1647" y="10" width="50" height="50" relative="1" as="geometry">
            <mxPoint x="390" y="-20" as="sourcePoint" />
            <mxPoint x="440" y="-70" as="targetPoint" />
            <Array as="points">
              <mxPoint x="240" y="-30" />
            </Array>
            <mxPoint as="offset" />
          </mxGeometry>
        </mxCell>
        <mxCell id="QZIYZ3LYBsorocGyn5Lz-23" value="retCalData()" style="endArrow=classic;html=1;rounded=0;dashed=1;" edge="1" parent="1" source="QZIYZ3LYBsorocGyn5Lz-7" target="QZIYZ3LYBsorocGyn5Lz-2">
          <mxGeometry x="-0.0706" y="-10" width="50" height="50" relative="1" as="geometry">
            <mxPoint x="390" y="-20" as="sourcePoint" />
            <mxPoint x="440" y="-70" as="targetPoint" />
            <Array as="points">
              <mxPoint x="250" y="10" />
            </Array>
            <mxPoint as="offset" />
          </mxGeometry>
        </mxCell>
        <mxCell id="QZIYZ3LYBsorocGyn5Lz-24" value="saveActivity()" style="endArrow=classic;html=1;rounded=0;" edge="1" parent="1" source="QZIYZ3LYBsorocGyn5Lz-2" target="QZIYZ3LYBsorocGyn5Lz-8">
          <mxGeometry x="0.0324" y="10" width="50" height="50" relative="1" as="geometry">
            <mxPoint x="390" y="-20" as="sourcePoint" />
            <mxPoint x="440" y="-70" as="targetPoint" />
            <Array as="points">
              <mxPoint x="300" y="50" />
            </Array>
            <mxPoint x="1" as="offset" />
          </mxGeometry>
        </mxCell>
        <mxCell id="QZIYZ3LYBsorocGyn5Lz-25" value="showActList()" style="endArrow=classic;html=1;rounded=0;" edge="1" parent="1" source="QZIYZ3LYBsorocGyn5Lz-8" target="QZIYZ3LYBsorocGyn5Lz-3">
          <mxGeometry x="0.0522" y="10" width="50" height="50" relative="1" as="geometry">
            <mxPoint x="390" y="-20" as="sourcePoint" />
            <mxPoint x="440" y="-70" as="targetPoint" />
            <Array as="points">
              <mxPoint x="440" y="70" />
            </Array>
            <mxPoint as="offset" />
          </mxGeometry>
        </mxCell>
        <mxCell id="QZIYZ3LYBsorocGyn5Lz-26" value="showError()" style="endArrow=classic;html=1;rounded=0;" edge="1" parent="1" source="QZIYZ3LYBsorocGyn5Lz-2" target="QZIYZ3LYBsorocGyn5Lz-2">
          <mxGeometry y="20" width="50" height="50" relative="1" as="geometry">
            <mxPoint x="390" y="80" as="sourcePoint" />
            <mxPoint x="440" y="30" as="targetPoint" />
            <Array as="points">
              <mxPoint x="220" y="120" />
              <mxPoint x="220" y="140" />
            </Array>
            <mxPoint as="offset" />
          </mxGeometry>
        </mxCell>
        <mxCell id="QZIYZ3LYBsorocGyn5Lz-27" value="showCreateAct()" style="endArrow=classic;html=1;rounded=0;" edge="1" parent="1" source="QZIYZ3LYBsorocGyn5Lz-2" target="QZIYZ3LYBsorocGyn5Lz-6">
          <mxGeometry width="50" height="50" relative="1" as="geometry">
            <mxPoint x="400" y="80" as="sourcePoint" />
            <mxPoint x="450" y="30" as="targetPoint" />
            <Array as="points">
              <mxPoint x="420" y="160" />
            </Array>
          </mxGeometry>
        </mxCell>
        <mxCell id="QZIYZ3LYBsorocGyn5Lz-28" value="inputActData()" style="endArrow=classic;html=1;rounded=0;" edge="1" parent="1" source="QZIYZ3LYBsorocGyn5Lz-1" target="QZIYZ3LYBsorocGyn5Lz-6">
          <mxGeometry width="50" height="50" relative="1" as="geometry">
            <mxPoint x="340" y="80" as="sourcePoint" />
            <mxPoint x="390" y="30" as="targetPoint" />
            <Array as="points">
              <mxPoint x="370" y="190" />
            </Array>
          </mxGeometry>
        </mxCell>
        <mxCell id="QZIYZ3LYBsorocGyn5Lz-29" value="saveActivity()" style="endArrow=classic;html=1;rounded=0;" edge="1" parent="1" source="QZIYZ3LYBsorocGyn5Lz-6" target="QZIYZ3LYBsorocGyn5Lz-8">
          <mxGeometry x="-0.1673" y="-10" width="50" height="50" relative="1" as="geometry">
            <mxPoint x="340" y="80" as="sourcePoint" />
            <mxPoint x="390" y="30" as="targetPoint" />
            <Array as="points">
              <mxPoint x="530" y="220" />
            </Array>
            <mxPoint as="offset" />
          </mxGeometry>
        </mxCell>
        <mxCell id="QZIYZ3LYBsorocGyn5Lz-30" value="showActList()" style="endArrow=classic;html=1;rounded=0;" edge="1" parent="1" source="QZIYZ3LYBsorocGyn5Lz-8" target="QZIYZ3LYBsorocGyn5Lz-3">
          <mxGeometry x="0.0522" y="10" width="50" height="50" relative="1" as="geometry">
            <mxPoint x="340" y="80" as="sourcePoint" />
            <mxPoint x="390" y="30" as="targetPoint" />
            <Array as="points">
              <mxPoint x="450" y="250" />
            </Array>
            <mxPoint as="offset" />
          </mxGeometry>
        </mxCell>
        <mxCell id="QZIYZ3LYBsorocGyn5Lz-31" value="ALT1" style="shape=umlFrame;whiteSpace=wrap;html=1;pointerEvents=0;" vertex="1" parent="1">
          <mxGeometry x="140" y="20" width="550" height="250" as="geometry" />
        </mxCell>
        <mxCell id="QZIYZ3LYBsorocGyn5Lz-32" value="activity&lt;br&gt;found" style="text;html=1;align=center;verticalAlign=middle;resizable=0;points=[];autosize=1;strokeColor=none;fillColor=none;" vertex="1" parent="1">
          <mxGeometry x="135" y="50" width="60" height="40" as="geometry" />
        </mxCell>
        <mxCell id="QZIYZ3LYBsorocGyn5Lz-34" value="activity&amp;nbsp;&lt;br&gt;not&lt;br&gt;found" style="text;html=1;align=center;verticalAlign=middle;resizable=0;points=[];autosize=1;strokeColor=none;fillColor=none;" vertex="1" parent="1">
          <mxGeometry x="135" y="120" width="60" height="60" as="geometry" />
        </mxCell>
        <mxCell id="QZIYZ3LYBsorocGyn5Lz-37" value="" style="endArrow=none;dashed=1;html=1;rounded=0;exitX=-0.001;exitY=0.368;exitDx=0;exitDy=0;exitPerimeter=0;dashPattern=12 12;" edge="1" parent="1" source="QZIYZ3LYBsorocGyn5Lz-31">
          <mxGeometry width="50" height="50" relative="1" as="geometry">
            <mxPoint x="340" y="80" as="sourcePoint" />
            <mxPoint x="690" y="112" as="targetPoint" />
          </mxGeometry>
        </mxCell>
        <mxCell id="QZIYZ3LYBsorocGyn5Lz-38" value="showTimeSpent()" style="endArrow=classic;html=1;rounded=0;" edge="1" parent="1" source="QZIYZ3LYBsorocGyn5Lz-3" target="QZIYZ3LYBsorocGyn5Lz-4">
          <mxGeometry x="0.0034" y="10" width="50" height="50" relative="1" as="geometry">
            <mxPoint x="470" y="300" as="sourcePoint" />
            <mxPoint x="520" y="250" as="targetPoint" />
            <Array as="points">
              <mxPoint x="640" y="310" />
            </Array>
            <mxPoint x="1" as="offset" />
          </mxGeometry>
        </mxCell>
        <mxCell id="QZIYZ3LYBsorocGyn5Lz-39" value="inputTime()" style="endArrow=classic;html=1;rounded=0;" edge="1" parent="1" source="QZIYZ3LYBsorocGyn5Lz-1" target="QZIYZ3LYBsorocGyn5Lz-4">
          <mxGeometry width="50" height="50" relative="1" as="geometry">
            <mxPoint x="310" y="200" as="sourcePoint" />
            <mxPoint x="360" y="150" as="targetPoint" />
            <Array as="points">
              <mxPoint x="440" y="360" />
            </Array>
          </mxGeometry>
        </mxCell>
        <mxCell id="QZIYZ3LYBsorocGyn5Lz-40" value="calculateCal()" style="endArrow=classic;html=1;rounded=0;" edge="1" parent="1" source="QZIYZ3LYBsorocGyn5Lz-4" target="QZIYZ3LYBsorocGyn5Lz-4">
          <mxGeometry y="20" width="50" height="50" relative="1" as="geometry">
            <mxPoint x="720" y="440" as="sourcePoint" />
            <mxPoint x="720" y="250" as="targetPoint" />
            <Array as="points">
              <mxPoint x="820" y="410" />
              <mxPoint x="820" y="430" />
            </Array>
            <mxPoint as="offset" />
          </mxGeometry>
        </mxCell>
        <mxCell id="QZIYZ3LYBsorocGyn5Lz-41" value="updateDailyList()" style="endArrow=classic;html=1;rounded=0;" edge="1" parent="1" source="QZIYZ3LYBsorocGyn5Lz-4" target="QZIYZ3LYBsorocGyn5Lz-9">
          <mxGeometry width="50" height="50" relative="1" as="geometry">
            <mxPoint x="670" y="300" as="sourcePoint" />
            <mxPoint x="720" y="250" as="targetPoint" />
            <Array as="points">
              <mxPoint x="850" y="450" />
            </Array>
          </mxGeometry>
        </mxCell>
        <mxCell id="QZIYZ3LYBsorocGyn5Lz-42" value="showCalBurnt()" style="endArrow=classic;html=1;rounded=0;" edge="1" parent="1" source="QZIYZ3LYBsorocGyn5Lz-54" target="QZIYZ3LYBsorocGyn5Lz-5">
          <mxGeometry width="50" height="50" relative="1" as="geometry">
            <mxPoint x="890" y="300" as="sourcePoint" />
            <mxPoint x="940" y="250" as="targetPoint" />
            <Array as="points">
              <mxPoint x="940" y="490" />
            </Array>
          </mxGeometry>
        </mxCell>
        <mxCell id="QZIYZ3LYBsorocGyn5Lz-43" value="choseAct()" style="endArrow=classic;html=1;rounded=0;" edge="1" parent="1" source="QZIYZ3LYBsorocGyn5Lz-1" target="QZIYZ3LYBsorocGyn5Lz-3">
          <mxGeometry width="50" height="50" relative="1" as="geometry">
            <mxPoint x="380" y="200" as="sourcePoint" />
            <mxPoint x="430" y="150" as="targetPoint" />
            <Array as="points">
              <mxPoint x="300" y="290" />
            </Array>
          </mxGeometry>
        </mxCell>
        <mxCell id="QZIYZ3LYBsorocGyn5Lz-49" value="" style="html=1;points=[];perimeter=orthogonalPerimeter;outlineConnect=0;targetShapes=umlLifeline;portConstraint=eastwest;newEdgeStyle={&quot;edgeStyle&quot;:&quot;elbowEdgeStyle&quot;,&quot;elbow&quot;:&quot;vertical&quot;,&quot;curved&quot;:0,&quot;rounded&quot;:0};" vertex="1" parent="1">
          <mxGeometry x="490" y="70" width="10" height="240" as="geometry" />
        </mxCell>
        <mxCell id="QZIYZ3LYBsorocGyn5Lz-52" value="" style="html=1;points=[];perimeter=orthogonalPerimeter;outlineConnect=0;targetShapes=umlLifeline;portConstraint=eastwest;newEdgeStyle={&quot;edgeStyle&quot;:&quot;elbowEdgeStyle&quot;,&quot;elbow&quot;:&quot;vertical&quot;,&quot;curved&quot;:0,&quot;rounded&quot;:0};" vertex="1" parent="1">
          <mxGeometry x="650" y="160" width="10" height="60" as="geometry" />
        </mxCell>
        <mxCell id="QZIYZ3LYBsorocGyn5Lz-54" value="" style="html=1;points=[];perimeter=orthogonalPerimeter;outlineConnect=0;targetShapes=umlLifeline;portConstraint=eastwest;newEdgeStyle={&quot;edgeStyle&quot;:&quot;elbowEdgeStyle&quot;,&quot;elbow&quot;:&quot;vertical&quot;,&quot;curved&quot;:0,&quot;rounded&quot;:0};" vertex="1" parent="1">
          <mxGeometry x="915" y="450" width="10" height="40" as="geometry" />
        </mxCell>
        <mxCell id="QZIYZ3LYBsorocGyn5Lz-58" value="" style="html=1;points=[];perimeter=orthogonalPerimeter;outlineConnect=0;targetShapes=umlLifeline;portConstraint=eastwest;newEdgeStyle={&quot;edgeStyle&quot;:&quot;elbowEdgeStyle&quot;,&quot;elbow&quot;:&quot;vertical&quot;,&quot;curved&quot;:0,&quot;rounded&quot;:0};" vertex="1" parent="1">
          <mxGeometry x="1070" y="490" width="10" height="30" as="geometry" />
        </mxCell>
      </root>
    </mxGraphModel>
  </diagram>
</mxfile>
